<?xml version="1.0" encoding="utf-8" standalone="no"?>
<!DOCTYPE svg PUBLIC "-//W3C//DTD SVG 1.1//EN"
  "http://www.w3.org/Graphics/SVG/1.1/DTD/svg11.dtd">
<!-- Created with matplotlib (https://matplotlib.org/) -->
<svg height="300.989344pt" version="1.1" viewBox="0 0 403.966875 300.989344" width="403.966875pt" xmlns="http://www.w3.org/2000/svg" xmlns:xlink="http://www.w3.org/1999/xlink">
 <defs>
  <style type="text/css">
*{stroke-linecap:butt;stroke-linejoin:round;}
  </style>
 </defs>
 <g id="figure_1">
  <g id="patch_1">
   <path d="M 0 300.989344 
L 403.966875 300.989344 
L 403.966875 0 
L 0 0 
z
" style="fill:#ffffff;"/>
  </g>
  <g id="axes_1">
   <g id="patch_2">
    <path d="M 30.103125 277.111219 
L 387.223125 277.111219 
L 387.223125 10.999219 
L 30.103125 10.999219 
z
" style="fill:#ffffff;"/>
   </g>
   <g id="matplotlib.axis_1">
    <g id="xtick_1">
     <g id="line2d_1">
      <defs>
       <path d="M 0 0 
L 0 3.5 
" id="m6d39917eaa" style="stroke:#000000;stroke-width:0.8;"/>
      </defs>
      <g>
       <use style="stroke:#000000;stroke-width:0.8;" x="30.103125" xlink:href="#m6d39917eaa" y="277.111219"/>
      </g>
     </g>
     <g id="text_1">
      <!-- 0 -->
      <defs>
       <path d="M 31.78125 66.40625 
Q 24.171875 66.40625 20.328125 58.90625 
Q 16.5 51.421875 16.5 36.375 
Q 16.5 21.390625 20.328125 13.890625 
Q 24.171875 6.390625 31.78125 6.390625 
Q 39.453125 6.390625 43.28125 13.890625 
Q 47.125 21.390625 47.125 36.375 
Q 47.125 51.421875 43.28125 58.90625 
Q 39.453125 66.40625 31.78125 66.40625 
z
M 31.78125 74.21875 
Q 44.046875 74.21875 50.515625 64.515625 
Q 56.984375 54.828125 56.984375 36.375 
Q 56.984375 17.96875 50.515625 8.265625 
Q 44.046875 -1.421875 31.78125 -1.421875 
Q 19.53125 -1.421875 13.0625 8.265625 
Q 6.59375 17.96875 6.59375 36.375 
Q 6.59375 54.828125 13.0625 64.515625 
Q 19.53125 74.21875 31.78125 74.21875 
z
" id="DejaVuSans-48"/>
      </defs>
      <g transform="translate(26.921875 291.709656)scale(0.1 -0.1)">
       <use xlink:href="#DejaVuSans-48"/>
      </g>
     </g>
    </g>
    <g id="xtick_2">
     <g id="line2d_2">
      <g>
       <use style="stroke:#000000;stroke-width:0.8;" x="74.743125" xlink:href="#m6d39917eaa" y="277.111219"/>
      </g>
     </g>
     <g id="text_2">
      <!-- 25 -->
      <defs>
       <path d="M 19.1875 8.296875 
L 53.609375 8.296875 
L 53.609375 0 
L 7.328125 0 
L 7.328125 8.296875 
Q 12.9375 14.109375 22.625 23.890625 
Q 32.328125 33.6875 34.8125 36.53125 
Q 39.546875 41.84375 41.421875 45.53125 
Q 43.3125 49.21875 43.3125 52.78125 
Q 43.3125 58.59375 39.234375 62.25 
Q 35.15625 65.921875 28.609375 65.921875 
Q 23.96875 65.921875 18.8125 64.3125 
Q 13.671875 62.703125 7.8125 59.421875 
L 7.8125 69.390625 
Q 13.765625 71.78125 18.9375 73 
Q 24.125 74.21875 28.421875 74.21875 
Q 39.75 74.21875 46.484375 68.546875 
Q 53.21875 62.890625 53.21875 53.421875 
Q 53.21875 48.921875 51.53125 44.890625 
Q 49.859375 40.875 45.40625 35.40625 
Q 44.1875 33.984375 37.640625 27.21875 
Q 31.109375 20.453125 19.1875 8.296875 
z
" id="DejaVuSans-50"/>
       <path d="M 10.796875 72.90625 
L 49.515625 72.90625 
L 49.515625 64.59375 
L 19.828125 64.59375 
L 19.828125 46.734375 
Q 21.96875 47.46875 24.109375 47.828125 
Q 26.265625 48.1875 28.421875 48.1875 
Q 40.625 48.1875 47.75 41.5 
Q 54.890625 34.8125 54.890625 23.390625 
Q 54.890625 11.625 47.5625 5.09375 
Q 40.234375 -1.421875 26.90625 -1.421875 
Q 22.3125 -1.421875 17.546875 -0.640625 
Q 12.796875 0.140625 7.71875 1.703125 
L 7.71875 11.625 
Q 12.109375 9.234375 16.796875 8.0625 
Q 21.484375 6.890625 26.703125 6.890625 
Q 35.15625 6.890625 40.078125 11.328125 
Q 45.015625 15.765625 45.015625 23.390625 
Q 45.015625 31 40.078125 35.4375 
Q 35.15625 39.890625 26.703125 39.890625 
Q 22.75 39.890625 18.8125 39.015625 
Q 14.890625 38.140625 10.796875 36.28125 
z
" id="DejaVuSans-53"/>
      </defs>
      <g transform="translate(68.380625 291.709656)scale(0.1 -0.1)">
       <use xlink:href="#DejaVuSans-50"/>
       <use x="63.623047" xlink:href="#DejaVuSans-53"/>
      </g>
     </g>
    </g>
    <g id="xtick_3">
     <g id="line2d_3">
      <g>
       <use style="stroke:#000000;stroke-width:0.8;" x="119.383125" xlink:href="#m6d39917eaa" y="277.111219"/>
      </g>
     </g>
     <g id="text_3">
      <!-- 50 -->
      <g transform="translate(113.020625 291.709656)scale(0.1 -0.1)">
       <use xlink:href="#DejaVuSans-53"/>
       <use x="63.623047" xlink:href="#DejaVuSans-48"/>
      </g>
     </g>
    </g>
    <g id="xtick_4">
     <g id="line2d_4">
      <g>
       <use style="stroke:#000000;stroke-width:0.8;" x="164.023125" xlink:href="#m6d39917eaa" y="277.111219"/>
      </g>
     </g>
     <g id="text_4">
      <!-- 75 -->
      <defs>
       <path d="M 8.203125 72.90625 
L 55.078125 72.90625 
L 55.078125 68.703125 
L 28.609375 0 
L 18.3125 0 
L 43.21875 64.59375 
L 8.203125 64.59375 
z
" id="DejaVuSans-55"/>
      </defs>
      <g transform="translate(157.660625 291.709656)scale(0.1 -0.1)">
       <use xlink:href="#DejaVuSans-55"/>
       <use x="63.623047" xlink:href="#DejaVuSans-53"/>
      </g>
     </g>
    </g>
    <g id="xtick_5">
     <g id="line2d_5">
      <g>
       <use style="stroke:#000000;stroke-width:0.8;" x="208.663125" xlink:href="#m6d39917eaa" y="277.111219"/>
      </g>
     </g>
     <g id="text_5">
      <!-- 100 -->
      <defs>
       <path d="M 12.40625 8.296875 
L 28.515625 8.296875 
L 28.515625 63.921875 
L 10.984375 60.40625 
L 10.984375 69.390625 
L 28.421875 72.90625 
L 38.28125 72.90625 
L 38.28125 8.296875 
L 54.390625 8.296875 
L 54.390625 0 
L 12.40625 0 
z
" id="DejaVuSans-49"/>
      </defs>
      <g transform="translate(199.119375 291.709656)scale(0.1 -0.1)">
       <use xlink:href="#DejaVuSans-49"/>
       <use x="63.623047" xlink:href="#DejaVuSans-48"/>
       <use x="127.246094" xlink:href="#DejaVuSans-48"/>
      </g>
     </g>
    </g>
    <g id="xtick_6">
     <g id="line2d_6">
      <g>
       <use style="stroke:#000000;stroke-width:0.8;" x="253.303125" xlink:href="#m6d39917eaa" y="277.111219"/>
      </g>
     </g>
     <g id="text_6">
      <!-- 125 -->
      <g transform="translate(243.759375 291.709656)scale(0.1 -0.1)">
       <use xlink:href="#DejaVuSans-49"/>
       <use x="63.623047" xlink:href="#DejaVuSans-50"/>
       <use x="127.246094" xlink:href="#DejaVuSans-53"/>
      </g>
     </g>
    </g>
    <g id="xtick_7">
     <g id="line2d_7">
      <g>
       <use style="stroke:#000000;stroke-width:0.8;" x="297.943125" xlink:href="#m6d39917eaa" y="277.111219"/>
      </g>
     </g>
     <g id="text_7">
      <!-- 150 -->
      <g transform="translate(288.399375 291.709656)scale(0.1 -0.1)">
       <use xlink:href="#DejaVuSans-49"/>
       <use x="63.623047" xlink:href="#DejaVuSans-53"/>
       <use x="127.246094" xlink:href="#DejaVuSans-48"/>
      </g>
     </g>
    </g>
    <g id="xtick_8">
     <g id="line2d_8">
      <g>
       <use style="stroke:#000000;stroke-width:0.8;" x="342.583125" xlink:href="#m6d39917eaa" y="277.111219"/>
      </g>
     </g>
     <g id="text_8">
      <!-- 175 -->
      <g transform="translate(333.039375 291.709656)scale(0.1 -0.1)">
       <use xlink:href="#DejaVuSans-49"/>
       <use x="63.623047" xlink:href="#DejaVuSans-55"/>
       <use x="127.246094" xlink:href="#DejaVuSans-53"/>
      </g>
     </g>
    </g>
    <g id="xtick_9">
     <g id="line2d_9">
      <g>
       <use style="stroke:#000000;stroke-width:0.8;" x="387.223125" xlink:href="#m6d39917eaa" y="277.111219"/>
      </g>
     </g>
     <g id="text_9">
      <!-- 200 -->
      <g transform="translate(377.679375 291.709656)scale(0.1 -0.1)">
       <use xlink:href="#DejaVuSans-50"/>
       <use x="63.623047" xlink:href="#DejaVuSans-48"/>
       <use x="127.246094" xlink:href="#DejaVuSans-48"/>
      </g>
     </g>
    </g>
   </g>
   <g id="matplotlib.axis_2">
    <g id="ytick_1">
     <g id="line2d_10">
      <defs>
       <path d="M 0 0 
L -3.5 0 
" id="mb055ac3437" style="stroke:#000000;stroke-width:0.8;"/>
      </defs>
      <g>
       <use style="stroke:#000000;stroke-width:0.8;" x="30.103125" xlink:href="#mb055ac3437" y="277.111219"/>
      </g>
     </g>
     <g id="text_10">
      <!-- 0.0 -->
      <defs>
       <path d="M 10.6875 12.40625 
L 21 12.40625 
L 21 0 
L 10.6875 0 
z
" id="DejaVuSans-46"/>
      </defs>
      <g transform="translate(7.2 280.910437)scale(0.1 -0.1)">
       <use xlink:href="#DejaVuSans-48"/>
       <use x="63.623047" xlink:href="#DejaVuSans-46"/>
       <use x="95.410156" xlink:href="#DejaVuSans-48"/>
      </g>
     </g>
    </g>
    <g id="ytick_2">
     <g id="line2d_11">
      <g>
       <use style="stroke:#000000;stroke-width:0.8;" x="30.103125" xlink:href="#mb055ac3437" y="223.888819"/>
      </g>
     </g>
     <g id="text_11">
      <!-- 0.2 -->
      <g transform="translate(7.2 227.688037)scale(0.1 -0.1)">
       <use xlink:href="#DejaVuSans-48"/>
       <use x="63.623047" xlink:href="#DejaVuSans-46"/>
       <use x="95.410156" xlink:href="#DejaVuSans-50"/>
      </g>
     </g>
    </g>
    <g id="ytick_3">
     <g id="line2d_12">
      <g>
       <use style="stroke:#000000;stroke-width:0.8;" x="30.103125" xlink:href="#mb055ac3437" y="170.666419"/>
      </g>
     </g>
     <g id="text_12">
      <!-- 0.4 -->
      <defs>
       <path d="M 37.796875 64.3125 
L 12.890625 25.390625 
L 37.796875 25.390625 
z
M 35.203125 72.90625 
L 47.609375 72.90625 
L 47.609375 25.390625 
L 58.015625 25.390625 
L 58.015625 17.1875 
L 47.609375 17.1875 
L 47.609375 0 
L 37.796875 0 
L 37.796875 17.1875 
L 4.890625 17.1875 
L 4.890625 26.703125 
z
" id="DejaVuSans-52"/>
      </defs>
      <g transform="translate(7.2 174.465637)scale(0.1 -0.1)">
       <use xlink:href="#DejaVuSans-48"/>
       <use x="63.623047" xlink:href="#DejaVuSans-46"/>
       <use x="95.410156" xlink:href="#DejaVuSans-52"/>
      </g>
     </g>
    </g>
    <g id="ytick_4">
     <g id="line2d_13">
      <g>
       <use style="stroke:#000000;stroke-width:0.8;" x="30.103125" xlink:href="#mb055ac3437" y="117.444019"/>
      </g>
     </g>
     <g id="text_13">
      <!-- 0.6 -->
      <defs>
       <path d="M 33.015625 40.375 
Q 26.375 40.375 22.484375 35.828125 
Q 18.609375 31.296875 18.609375 23.390625 
Q 18.609375 15.53125 22.484375 10.953125 
Q 26.375 6.390625 33.015625 6.390625 
Q 39.65625 6.390625 43.53125 10.953125 
Q 47.40625 15.53125 47.40625 23.390625 
Q 47.40625 31.296875 43.53125 35.828125 
Q 39.65625 40.375 33.015625 40.375 
z
M 52.59375 71.296875 
L 52.59375 62.3125 
Q 48.875 64.0625 45.09375 64.984375 
Q 41.3125 65.921875 37.59375 65.921875 
Q 27.828125 65.921875 22.671875 59.328125 
Q 17.53125 52.734375 16.796875 39.40625 
Q 19.671875 43.65625 24.015625 45.921875 
Q 28.375 48.1875 33.59375 48.1875 
Q 44.578125 48.1875 50.953125 41.515625 
Q 57.328125 34.859375 57.328125 23.390625 
Q 57.328125 12.15625 50.6875 5.359375 
Q 44.046875 -1.421875 33.015625 -1.421875 
Q 20.359375 -1.421875 13.671875 8.265625 
Q 6.984375 17.96875 6.984375 36.375 
Q 6.984375 53.65625 15.1875 63.9375 
Q 23.390625 74.21875 37.203125 74.21875 
Q 40.921875 74.21875 44.703125 73.484375 
Q 48.484375 72.75 52.59375 71.296875 
z
" id="DejaVuSans-54"/>
      </defs>
      <g transform="translate(7.2 121.243237)scale(0.1 -0.1)">
       <use xlink:href="#DejaVuSans-48"/>
       <use x="63.623047" xlink:href="#DejaVuSans-46"/>
       <use x="95.410156" xlink:href="#DejaVuSans-54"/>
      </g>
     </g>
    </g>
    <g id="ytick_5">
     <g id="line2d_14">
      <g>
       <use style="stroke:#000000;stroke-width:0.8;" x="30.103125" xlink:href="#mb055ac3437" y="64.221619"/>
      </g>
     </g>
     <g id="text_14">
      <!-- 0.8 -->
      <defs>
       <path d="M 31.78125 34.625 
Q 24.75 34.625 20.71875 30.859375 
Q 16.703125 27.09375 16.703125 20.515625 
Q 16.703125 13.921875 20.71875 10.15625 
Q 24.75 6.390625 31.78125 6.390625 
Q 38.8125 6.390625 42.859375 10.171875 
Q 46.921875 13.96875 46.921875 20.515625 
Q 46.921875 27.09375 42.890625 30.859375 
Q 38.875 34.625 31.78125 34.625 
z
M 21.921875 38.8125 
Q 15.578125 40.375 12.03125 44.71875 
Q 8.5 49.078125 8.5 55.328125 
Q 8.5 64.0625 14.71875 69.140625 
Q 20.953125 74.21875 31.78125 74.21875 
Q 42.671875 74.21875 48.875 69.140625 
Q 55.078125 64.0625 55.078125 55.328125 
Q 55.078125 49.078125 51.53125 44.71875 
Q 48 40.375 41.703125 38.8125 
Q 48.828125 37.15625 52.796875 32.3125 
Q 56.78125 27.484375 56.78125 20.515625 
Q 56.78125 9.90625 50.3125 4.234375 
Q 43.84375 -1.421875 31.78125 -1.421875 
Q 19.734375 -1.421875 13.25 4.234375 
Q 6.78125 9.90625 6.78125 20.515625 
Q 6.78125 27.484375 10.78125 32.3125 
Q 14.796875 37.15625 21.921875 38.8125 
z
M 18.3125 54.390625 
Q 18.3125 48.734375 21.84375 45.5625 
Q 25.390625 42.390625 31.78125 42.390625 
Q 38.140625 42.390625 41.71875 45.5625 
Q 45.3125 48.734375 45.3125 54.390625 
Q 45.3125 60.0625 41.71875 63.234375 
Q 38.140625 66.40625 31.78125 66.40625 
Q 25.390625 66.40625 21.84375 63.234375 
Q 18.3125 60.0625 18.3125 54.390625 
z
" id="DejaVuSans-56"/>
      </defs>
      <g transform="translate(7.2 68.020837)scale(0.1 -0.1)">
       <use xlink:href="#DejaVuSans-48"/>
       <use x="63.623047" xlink:href="#DejaVuSans-46"/>
       <use x="95.410156" xlink:href="#DejaVuSans-56"/>
      </g>
     </g>
    </g>
    <g id="ytick_6">
     <g id="line2d_15">
      <g>
       <use style="stroke:#000000;stroke-width:0.8;" x="30.103125" xlink:href="#mb055ac3437" y="10.999219"/>
      </g>
     </g>
     <g id="text_15">
      <!-- 1.0 -->
      <g transform="translate(7.2 14.798437)scale(0.1 -0.1)">
       <use xlink:href="#DejaVuSans-49"/>
       <use x="63.623047" xlink:href="#DejaVuSans-46"/>
       <use x="95.410156" xlink:href="#DejaVuSans-48"/>
      </g>
     </g>
    </g>
   </g>
   <g id="line2d_16">
    <path clip-path="url(#pf5b961a7f6)" d="M 30.103125 14.294796 
L 31.888725 52.719335 
L 33.674325 69.850009 
L 35.459925 14.294796 
L 37.245525 128.304719 
L 39.031125 142.121618 
L 40.816725 52.719335 
L 42.602325 69.850009 
L 44.387925 194.077997 
L 46.173525 14.294796 
L 47.959125 128.304719 
L 49.744725 256.48743 
L 51.530325 80.872679 
L 53.315925 52.719335 
L 55.101525 121.355849 
L 56.887125 30.255625 
L 58.672725 158.389052 
L 60.458325 118.40484 
L 62.243925 14.294796 
L 64.029525 47.332597 
L 65.815125 128.304719 
L 67.600725 110.39368 
L 69.386325 57.54728 
L 71.171925 170.494 
L 72.957525 27.791621 
L 74.743125 90.884479 
L 76.528725 48.788927 
L 78.314325 121.355849 
L 80.099925 48.788905 
L 81.885525 30.255625 
L 83.671125 140.33818 
L 85.456725 118.40484 
L 87.242325 24.058324 
L 89.027925 36.788888 
L 90.813525 14.294796 
L 92.599125 81.000286 
L 94.384725 47.332597 
L 96.170325 81.000296 
L 97.955925 157.033308 
L 99.741525 51.354404 
L 101.527125 110.39368 
L 103.312725 207.898106 
L 105.098325 29.463296 
L 106.883925 170.494 
L 108.669525 15.248622 
L 110.455125 27.791621 
L 112.240725 73.666457 
L 114.026325 32.321028 
L 115.811925 32.321028 
L 117.597525 141.759259 
L 119.383125 56.737931 
L 121.168725 69.887251 
L 122.954325 48.788905 
L 124.739925 48.788951 
L 126.525525 30.255625 
L 128.311125 39.52643 
L 130.096725 12.635266 
L 131.882325 85.024686 
L 133.667925 79.196814 
L 135.453525 20.786021 
L 137.239125 17.569839 
L 139.024725 60.788707 
L 140.810325 36.788888 
L 142.595925 79.747944 
L 144.381525 14.294796 
L 146.167125 41.349348 
L 147.952725 41.349348 
L 149.738325 15.686864 
L 151.523925 19.547966 
L 153.309525 41.341579 
L 155.095125 81.000296 
L 156.880725 38.033352 
L 158.666325 56.094579 
L 160.451925 51.354404 
L 162.237525 84.556428 
L 164.023125 56.141023 
L 165.808725 20.332466 
L 167.594325 168.321936 
L 169.379925 99.560725 
L 171.165525 47.263576 
L 172.951125 15.248416 
L 174.736725 121.347274 
L 176.522325 170.494 
L 178.307925 15.248622 
L 180.093525 38.051475 
L 181.879125 27.791621 
L 183.664725 27.513569 
L 185.450325 51.436336 
L 187.235925 73.666457 
L 189.021525 41.3626 
L 190.807125 27.515506 
L 192.592725 23.97759 
L 194.378325 32.321028 
L 196.163925 32.321028 
L 197.949525 31.562907 
L 199.735125 56.737931 
L 201.520725 97.973195 
L 203.306325 63.662127 
L 205.091925 84.398731 
L 206.877525 48.788905 
L 208.663125 193.885406 
L 210.448725 48.788951 
L 212.234325 250.025387 
L 214.019925 69.916363 
L 215.805525 30.255625 
L 217.591125 39.52643 
L 219.376725 41.324527 
L 221.162325 12.635266 
L 222.947925 43.49951 
L 224.733525 63.966873 
L 226.519125 69.923665 
L 228.304725 20.786021 
L 230.090325 20.786021 
L 231.875925 17.569839 
L 233.661525 70.769472 
L 235.447125 36.788888 
L 237.232725 78.914591 
L 239.018325 79.747944 
L 240.803925 14.294796 
L 242.589525 14.294796 
L 244.375125 41.340388 
L 246.160725 41.28791 
L 247.946325 15.686864 
L 249.731925 14.29434 
L 251.517525 19.547966 
L 253.303125 21.549694 
L 255.088725 19.547989 
L 256.874325 16.873099 
L 260.445525 16.864535 
L 262.231125 17.893475 
L 264.016725 51.354404 
L 265.802325 63.588199 
L 267.587925 84.556428 
L 269.373525 12.473363 
L 271.159125 56.141023 
L 272.944725 20.332466 
L 274.730325 20.640633 
L 276.515925 98.396482 
L 278.301525 168.321936 
L 280.087125 74.035112 
L 281.872725 74.035112 
L 283.658325 47.263576 
L 285.443925 130.011063 
L 287.229525 15.248416 
L 289.015125 24.687043 
L 290.800725 27.793567 
L 292.586325 27.793567 
L 294.371925 15.248622 
L 296.157525 24.706564 
L 297.943125 74.868224 
L 299.728725 20.344614 
L 301.514325 47.261503 
L 303.299925 20.313664 
L 305.085525 27.513569 
L 306.871125 32.303465 
L 308.656725 32.303465 
L 310.442325 47.294353 
L 312.227925 41.3626 
L 314.013525 173.488711 
L 315.799125 52.599797 
L 317.584725 23.97759 
L 319.370325 167.77062 
L 321.155925 156.647408 
L 322.941525 76.776504 
L 324.727125 32.321028 
L 328.298325 31.562907 
L 330.083925 144.819848 
L 331.869525 14.272933 
L 333.655125 27.513503 
L 335.440725 48.788919 
L 337.226325 48.788919 
L 339.011925 30.255569 
L 340.797525 23.478285 
L 342.583125 66.89687 
L 344.368725 144.636993 
L 346.154325 48.543408 
L 347.939925 66.414112 
L 349.725525 20.103977 
L 351.511125 241.429598 
L 353.296725 48.788892 
L 355.082325 26.454106 
L 356.867925 109.877079 
L 358.653525 25.535331 
L 360.439125 25.535331 
L 362.224725 144.802955 
L 364.010325 30.255625 
L 365.795925 66.551644 
L 367.581525 39.52643 
L 369.367125 41.324527 
L 371.152725 60.502623 
L 372.938325 116.310746 
L 374.723925 12.635266 
L 376.509525 19.322411 
L 378.295125 43.49951 
L 380.080725 12.946887 
L 381.866325 17.499043 
L 383.651925 63.966877 
L 385.437525 40.43845 
L 385.437525 40.43845 
" style="fill:none;stroke:#1f77b4;stroke-linecap:square;stroke-width:1.5;"/>
   </g>
   <g id="patch_3">
    <path d="M 30.103125 277.111219 
L 30.103125 10.999219 
" style="fill:none;stroke:#000000;stroke-linecap:square;stroke-linejoin:miter;stroke-width:0.8;"/>
   </g>
   <g id="patch_4">
    <path d="M 387.223125 277.111219 
L 387.223125 10.999219 
" style="fill:none;stroke:#000000;stroke-linecap:square;stroke-linejoin:miter;stroke-width:0.8;"/>
   </g>
   <g id="patch_5">
    <path d="M 30.103125 277.111219 
L 387.223125 277.111219 
" style="fill:none;stroke:#000000;stroke-linecap:square;stroke-linejoin:miter;stroke-width:0.8;"/>
   </g>
   <g id="patch_6">
    <path d="M 30.103125 10.999219 
L 387.223125 10.999219 
" style="fill:none;stroke:#000000;stroke-linecap:square;stroke-linejoin:miter;stroke-width:0.8;"/>
   </g>
  </g>
 </g>
 <defs>
  <clipPath id="pf5b961a7f6">
   <rect height="266.112" width="357.12" x="30.103125" y="10.999219"/>
  </clipPath>
 </defs>
</svg>
