<?xml version="1.0" encoding="utf-8" standalone="no"?>
<!DOCTYPE svg PUBLIC "-//W3C//DTD SVG 1.1//EN"
  "http://www.w3.org/Graphics/SVG/1.1/DTD/svg11.dtd">
<!-- Created with matplotlib (https://matplotlib.org/) -->
<svg height="300.989344pt" version="1.1" viewBox="0 0 403.966875 300.989344" width="403.966875pt" xmlns="http://www.w3.org/2000/svg" xmlns:xlink="http://www.w3.org/1999/xlink">
 <defs>
  <style type="text/css">
*{stroke-linecap:butt;stroke-linejoin:round;}
  </style>
 </defs>
 <g id="figure_1">
  <g id="patch_1">
   <path d="M 0 300.989344 
L 403.966875 300.989344 
L 403.966875 0 
L 0 0 
z
" style="fill:#ffffff;"/>
  </g>
  <g id="axes_1">
   <g id="patch_2">
    <path d="M 30.103125 277.111219 
L 387.223125 277.111219 
L 387.223125 10.999219 
L 30.103125 10.999219 
z
" style="fill:#ffffff;"/>
   </g>
   <g id="matplotlib.axis_1">
    <g id="xtick_1">
     <g id="line2d_1">
      <defs>
       <path d="M 0 0 
L 0 3.5 
" id="mef0f0a9f8d" style="stroke:#000000;stroke-width:0.8;"/>
      </defs>
      <g>
       <use style="stroke:#000000;stroke-width:0.8;" x="30.103125" xlink:href="#mef0f0a9f8d" y="277.111219"/>
      </g>
     </g>
     <g id="text_1">
      <!-- 0 -->
      <defs>
       <path d="M 31.78125 66.40625 
Q 24.171875 66.40625 20.328125 58.90625 
Q 16.5 51.421875 16.5 36.375 
Q 16.5 21.390625 20.328125 13.890625 
Q 24.171875 6.390625 31.78125 6.390625 
Q 39.453125 6.390625 43.28125 13.890625 
Q 47.125 21.390625 47.125 36.375 
Q 47.125 51.421875 43.28125 58.90625 
Q 39.453125 66.40625 31.78125 66.40625 
z
M 31.78125 74.21875 
Q 44.046875 74.21875 50.515625 64.515625 
Q 56.984375 54.828125 56.984375 36.375 
Q 56.984375 17.96875 50.515625 8.265625 
Q 44.046875 -1.421875 31.78125 -1.421875 
Q 19.53125 -1.421875 13.0625 8.265625 
Q 6.59375 17.96875 6.59375 36.375 
Q 6.59375 54.828125 13.0625 64.515625 
Q 19.53125 74.21875 31.78125 74.21875 
z
" id="DejaVuSans-48"/>
      </defs>
      <g transform="translate(26.921875 291.709656)scale(0.1 -0.1)">
       <use xlink:href="#DejaVuSans-48"/>
      </g>
     </g>
    </g>
    <g id="xtick_2">
     <g id="line2d_2">
      <g>
       <use style="stroke:#000000;stroke-width:0.8;" x="74.743125" xlink:href="#mef0f0a9f8d" y="277.111219"/>
      </g>
     </g>
     <g id="text_2">
      <!-- 25 -->
      <defs>
       <path d="M 19.1875 8.296875 
L 53.609375 8.296875 
L 53.609375 0 
L 7.328125 0 
L 7.328125 8.296875 
Q 12.9375 14.109375 22.625 23.890625 
Q 32.328125 33.6875 34.8125 36.53125 
Q 39.546875 41.84375 41.421875 45.53125 
Q 43.3125 49.21875 43.3125 52.78125 
Q 43.3125 58.59375 39.234375 62.25 
Q 35.15625 65.921875 28.609375 65.921875 
Q 23.96875 65.921875 18.8125 64.3125 
Q 13.671875 62.703125 7.8125 59.421875 
L 7.8125 69.390625 
Q 13.765625 71.78125 18.9375 73 
Q 24.125 74.21875 28.421875 74.21875 
Q 39.75 74.21875 46.484375 68.546875 
Q 53.21875 62.890625 53.21875 53.421875 
Q 53.21875 48.921875 51.53125 44.890625 
Q 49.859375 40.875 45.40625 35.40625 
Q 44.1875 33.984375 37.640625 27.21875 
Q 31.109375 20.453125 19.1875 8.296875 
z
" id="DejaVuSans-50"/>
       <path d="M 10.796875 72.90625 
L 49.515625 72.90625 
L 49.515625 64.59375 
L 19.828125 64.59375 
L 19.828125 46.734375 
Q 21.96875 47.46875 24.109375 47.828125 
Q 26.265625 48.1875 28.421875 48.1875 
Q 40.625 48.1875 47.75 41.5 
Q 54.890625 34.8125 54.890625 23.390625 
Q 54.890625 11.625 47.5625 5.09375 
Q 40.234375 -1.421875 26.90625 -1.421875 
Q 22.3125 -1.421875 17.546875 -0.640625 
Q 12.796875 0.140625 7.71875 1.703125 
L 7.71875 11.625 
Q 12.109375 9.234375 16.796875 8.0625 
Q 21.484375 6.890625 26.703125 6.890625 
Q 35.15625 6.890625 40.078125 11.328125 
Q 45.015625 15.765625 45.015625 23.390625 
Q 45.015625 31 40.078125 35.4375 
Q 35.15625 39.890625 26.703125 39.890625 
Q 22.75 39.890625 18.8125 39.015625 
Q 14.890625 38.140625 10.796875 36.28125 
z
" id="DejaVuSans-53"/>
      </defs>
      <g transform="translate(68.380625 291.709656)scale(0.1 -0.1)">
       <use xlink:href="#DejaVuSans-50"/>
       <use x="63.623047" xlink:href="#DejaVuSans-53"/>
      </g>
     </g>
    </g>
    <g id="xtick_3">
     <g id="line2d_3">
      <g>
       <use style="stroke:#000000;stroke-width:0.8;" x="119.383125" xlink:href="#mef0f0a9f8d" y="277.111219"/>
      </g>
     </g>
     <g id="text_3">
      <!-- 50 -->
      <g transform="translate(113.020625 291.709656)scale(0.1 -0.1)">
       <use xlink:href="#DejaVuSans-53"/>
       <use x="63.623047" xlink:href="#DejaVuSans-48"/>
      </g>
     </g>
    </g>
    <g id="xtick_4">
     <g id="line2d_4">
      <g>
       <use style="stroke:#000000;stroke-width:0.8;" x="164.023125" xlink:href="#mef0f0a9f8d" y="277.111219"/>
      </g>
     </g>
     <g id="text_4">
      <!-- 75 -->
      <defs>
       <path d="M 8.203125 72.90625 
L 55.078125 72.90625 
L 55.078125 68.703125 
L 28.609375 0 
L 18.3125 0 
L 43.21875 64.59375 
L 8.203125 64.59375 
z
" id="DejaVuSans-55"/>
      </defs>
      <g transform="translate(157.660625 291.709656)scale(0.1 -0.1)">
       <use xlink:href="#DejaVuSans-55"/>
       <use x="63.623047" xlink:href="#DejaVuSans-53"/>
      </g>
     </g>
    </g>
    <g id="xtick_5">
     <g id="line2d_5">
      <g>
       <use style="stroke:#000000;stroke-width:0.8;" x="208.663125" xlink:href="#mef0f0a9f8d" y="277.111219"/>
      </g>
     </g>
     <g id="text_5">
      <!-- 100 -->
      <defs>
       <path d="M 12.40625 8.296875 
L 28.515625 8.296875 
L 28.515625 63.921875 
L 10.984375 60.40625 
L 10.984375 69.390625 
L 28.421875 72.90625 
L 38.28125 72.90625 
L 38.28125 8.296875 
L 54.390625 8.296875 
L 54.390625 0 
L 12.40625 0 
z
" id="DejaVuSans-49"/>
      </defs>
      <g transform="translate(199.119375 291.709656)scale(0.1 -0.1)">
       <use xlink:href="#DejaVuSans-49"/>
       <use x="63.623047" xlink:href="#DejaVuSans-48"/>
       <use x="127.246094" xlink:href="#DejaVuSans-48"/>
      </g>
     </g>
    </g>
    <g id="xtick_6">
     <g id="line2d_6">
      <g>
       <use style="stroke:#000000;stroke-width:0.8;" x="253.303125" xlink:href="#mef0f0a9f8d" y="277.111219"/>
      </g>
     </g>
     <g id="text_6">
      <!-- 125 -->
      <g transform="translate(243.759375 291.709656)scale(0.1 -0.1)">
       <use xlink:href="#DejaVuSans-49"/>
       <use x="63.623047" xlink:href="#DejaVuSans-50"/>
       <use x="127.246094" xlink:href="#DejaVuSans-53"/>
      </g>
     </g>
    </g>
    <g id="xtick_7">
     <g id="line2d_7">
      <g>
       <use style="stroke:#000000;stroke-width:0.8;" x="297.943125" xlink:href="#mef0f0a9f8d" y="277.111219"/>
      </g>
     </g>
     <g id="text_7">
      <!-- 150 -->
      <g transform="translate(288.399375 291.709656)scale(0.1 -0.1)">
       <use xlink:href="#DejaVuSans-49"/>
       <use x="63.623047" xlink:href="#DejaVuSans-53"/>
       <use x="127.246094" xlink:href="#DejaVuSans-48"/>
      </g>
     </g>
    </g>
    <g id="xtick_8">
     <g id="line2d_8">
      <g>
       <use style="stroke:#000000;stroke-width:0.8;" x="342.583125" xlink:href="#mef0f0a9f8d" y="277.111219"/>
      </g>
     </g>
     <g id="text_8">
      <!-- 175 -->
      <g transform="translate(333.039375 291.709656)scale(0.1 -0.1)">
       <use xlink:href="#DejaVuSans-49"/>
       <use x="63.623047" xlink:href="#DejaVuSans-55"/>
       <use x="127.246094" xlink:href="#DejaVuSans-53"/>
      </g>
     </g>
    </g>
    <g id="xtick_9">
     <g id="line2d_9">
      <g>
       <use style="stroke:#000000;stroke-width:0.8;" x="387.223125" xlink:href="#mef0f0a9f8d" y="277.111219"/>
      </g>
     </g>
     <g id="text_9">
      <!-- 200 -->
      <g transform="translate(377.679375 291.709656)scale(0.1 -0.1)">
       <use xlink:href="#DejaVuSans-50"/>
       <use x="63.623047" xlink:href="#DejaVuSans-48"/>
       <use x="127.246094" xlink:href="#DejaVuSans-48"/>
      </g>
     </g>
    </g>
   </g>
   <g id="matplotlib.axis_2">
    <g id="ytick_1">
     <g id="line2d_10">
      <defs>
       <path d="M 0 0 
L -3.5 0 
" id="mbc073f3cfc" style="stroke:#000000;stroke-width:0.8;"/>
      </defs>
      <g>
       <use style="stroke:#000000;stroke-width:0.8;" x="30.103125" xlink:href="#mbc073f3cfc" y="277.111219"/>
      </g>
     </g>
     <g id="text_10">
      <!-- 0.0 -->
      <defs>
       <path d="M 10.6875 12.40625 
L 21 12.40625 
L 21 0 
L 10.6875 0 
z
" id="DejaVuSans-46"/>
      </defs>
      <g transform="translate(7.2 280.910437)scale(0.1 -0.1)">
       <use xlink:href="#DejaVuSans-48"/>
       <use x="63.623047" xlink:href="#DejaVuSans-46"/>
       <use x="95.410156" xlink:href="#DejaVuSans-48"/>
      </g>
     </g>
    </g>
    <g id="ytick_2">
     <g id="line2d_11">
      <g>
       <use style="stroke:#000000;stroke-width:0.8;" x="30.103125" xlink:href="#mbc073f3cfc" y="223.888819"/>
      </g>
     </g>
     <g id="text_11">
      <!-- 0.2 -->
      <g transform="translate(7.2 227.688037)scale(0.1 -0.1)">
       <use xlink:href="#DejaVuSans-48"/>
       <use x="63.623047" xlink:href="#DejaVuSans-46"/>
       <use x="95.410156" xlink:href="#DejaVuSans-50"/>
      </g>
     </g>
    </g>
    <g id="ytick_3">
     <g id="line2d_12">
      <g>
       <use style="stroke:#000000;stroke-width:0.8;" x="30.103125" xlink:href="#mbc073f3cfc" y="170.666419"/>
      </g>
     </g>
     <g id="text_12">
      <!-- 0.4 -->
      <defs>
       <path d="M 37.796875 64.3125 
L 12.890625 25.390625 
L 37.796875 25.390625 
z
M 35.203125 72.90625 
L 47.609375 72.90625 
L 47.609375 25.390625 
L 58.015625 25.390625 
L 58.015625 17.1875 
L 47.609375 17.1875 
L 47.609375 0 
L 37.796875 0 
L 37.796875 17.1875 
L 4.890625 17.1875 
L 4.890625 26.703125 
z
" id="DejaVuSans-52"/>
      </defs>
      <g transform="translate(7.2 174.465637)scale(0.1 -0.1)">
       <use xlink:href="#DejaVuSans-48"/>
       <use x="63.623047" xlink:href="#DejaVuSans-46"/>
       <use x="95.410156" xlink:href="#DejaVuSans-52"/>
      </g>
     </g>
    </g>
    <g id="ytick_4">
     <g id="line2d_13">
      <g>
       <use style="stroke:#000000;stroke-width:0.8;" x="30.103125" xlink:href="#mbc073f3cfc" y="117.444019"/>
      </g>
     </g>
     <g id="text_13">
      <!-- 0.6 -->
      <defs>
       <path d="M 33.015625 40.375 
Q 26.375 40.375 22.484375 35.828125 
Q 18.609375 31.296875 18.609375 23.390625 
Q 18.609375 15.53125 22.484375 10.953125 
Q 26.375 6.390625 33.015625 6.390625 
Q 39.65625 6.390625 43.53125 10.953125 
Q 47.40625 15.53125 47.40625 23.390625 
Q 47.40625 31.296875 43.53125 35.828125 
Q 39.65625 40.375 33.015625 40.375 
z
M 52.59375 71.296875 
L 52.59375 62.3125 
Q 48.875 64.0625 45.09375 64.984375 
Q 41.3125 65.921875 37.59375 65.921875 
Q 27.828125 65.921875 22.671875 59.328125 
Q 17.53125 52.734375 16.796875 39.40625 
Q 19.671875 43.65625 24.015625 45.921875 
Q 28.375 48.1875 33.59375 48.1875 
Q 44.578125 48.1875 50.953125 41.515625 
Q 57.328125 34.859375 57.328125 23.390625 
Q 57.328125 12.15625 50.6875 5.359375 
Q 44.046875 -1.421875 33.015625 -1.421875 
Q 20.359375 -1.421875 13.671875 8.265625 
Q 6.984375 17.96875 6.984375 36.375 
Q 6.984375 53.65625 15.1875 63.9375 
Q 23.390625 74.21875 37.203125 74.21875 
Q 40.921875 74.21875 44.703125 73.484375 
Q 48.484375 72.75 52.59375 71.296875 
z
" id="DejaVuSans-54"/>
      </defs>
      <g transform="translate(7.2 121.243237)scale(0.1 -0.1)">
       <use xlink:href="#DejaVuSans-48"/>
       <use x="63.623047" xlink:href="#DejaVuSans-46"/>
       <use x="95.410156" xlink:href="#DejaVuSans-54"/>
      </g>
     </g>
    </g>
    <g id="ytick_5">
     <g id="line2d_14">
      <g>
       <use style="stroke:#000000;stroke-width:0.8;" x="30.103125" xlink:href="#mbc073f3cfc" y="64.221619"/>
      </g>
     </g>
     <g id="text_14">
      <!-- 0.8 -->
      <defs>
       <path d="M 31.78125 34.625 
Q 24.75 34.625 20.71875 30.859375 
Q 16.703125 27.09375 16.703125 20.515625 
Q 16.703125 13.921875 20.71875 10.15625 
Q 24.75 6.390625 31.78125 6.390625 
Q 38.8125 6.390625 42.859375 10.171875 
Q 46.921875 13.96875 46.921875 20.515625 
Q 46.921875 27.09375 42.890625 30.859375 
Q 38.875 34.625 31.78125 34.625 
z
M 21.921875 38.8125 
Q 15.578125 40.375 12.03125 44.71875 
Q 8.5 49.078125 8.5 55.328125 
Q 8.5 64.0625 14.71875 69.140625 
Q 20.953125 74.21875 31.78125 74.21875 
Q 42.671875 74.21875 48.875 69.140625 
Q 55.078125 64.0625 55.078125 55.328125 
Q 55.078125 49.078125 51.53125 44.71875 
Q 48 40.375 41.703125 38.8125 
Q 48.828125 37.15625 52.796875 32.3125 
Q 56.78125 27.484375 56.78125 20.515625 
Q 56.78125 9.90625 50.3125 4.234375 
Q 43.84375 -1.421875 31.78125 -1.421875 
Q 19.734375 -1.421875 13.25 4.234375 
Q 6.78125 9.90625 6.78125 20.515625 
Q 6.78125 27.484375 10.78125 32.3125 
Q 14.796875 37.15625 21.921875 38.8125 
z
M 18.3125 54.390625 
Q 18.3125 48.734375 21.84375 45.5625 
Q 25.390625 42.390625 31.78125 42.390625 
Q 38.140625 42.390625 41.71875 45.5625 
Q 45.3125 48.734375 45.3125 54.390625 
Q 45.3125 60.0625 41.71875 63.234375 
Q 38.140625 66.40625 31.78125 66.40625 
Q 25.390625 66.40625 21.84375 63.234375 
Q 18.3125 60.0625 18.3125 54.390625 
z
" id="DejaVuSans-56"/>
      </defs>
      <g transform="translate(7.2 68.020837)scale(0.1 -0.1)">
       <use xlink:href="#DejaVuSans-48"/>
       <use x="63.623047" xlink:href="#DejaVuSans-46"/>
       <use x="95.410156" xlink:href="#DejaVuSans-56"/>
      </g>
     </g>
    </g>
    <g id="ytick_6">
     <g id="line2d_15">
      <g>
       <use style="stroke:#000000;stroke-width:0.8;" x="30.103125" xlink:href="#mbc073f3cfc" y="10.999219"/>
      </g>
     </g>
     <g id="text_15">
      <!-- 1.0 -->
      <g transform="translate(7.2 14.798437)scale(0.1 -0.1)">
       <use xlink:href="#DejaVuSans-49"/>
       <use x="63.623047" xlink:href="#DejaVuSans-46"/>
       <use x="95.410156" xlink:href="#DejaVuSans-48"/>
      </g>
     </g>
    </g>
   </g>
   <g id="line2d_16">
    <path clip-path="url(#p686bf97dbf)" d="M 30.103125 182.354939 
L 33.674325 241.511518 
L 35.459925 233.837433 
L 37.245525 229.645717 
L 39.031125 257.154026 
L 40.816725 234.093077 
L 42.602325 240.588306 
L 44.387925 247.687118 
L 46.173525 231.417507 
L 47.959125 254.959838 
L 49.744725 269.535737 
L 51.530325 204.748695 
L 53.315925 218.247959 
L 55.101525 209.696327 
L 56.887125 191.154546 
L 58.672725 238.296563 
L 60.458325 221.902617 
L 62.243925 215.636081 
L 64.029525 226.621955 
L 65.815125 239.754919 
L 67.600725 239.139478 
L 69.386325 231.113202 
L 71.171925 257.487126 
L 72.957525 217.201196 
L 74.743125 201.639725 
L 76.528725 156.504972 
L 78.314325 219.19205 
L 80.099925 202.190467 
L 83.671125 236.697404 
L 85.456725 214.890476 
L 87.242325 220.223775 
L 89.027925 192.568944 
L 90.813525 178.178787 
L 92.599125 185.971681 
L 94.384725 189.229371 
L 96.170325 206.979449 
L 97.955925 239.206059 
L 99.741525 207.664881 
L 101.527125 212.676495 
L 103.312725 246.467454 
L 105.098325 215.125006 
L 106.883925 243.455376 
L 108.669525 159.309943 
L 110.455125 178.11761 
L 112.240725 180.561605 
L 114.026325 175.891788 
L 115.811925 180.41369 
L 117.597525 212.135083 
L 119.383125 211.960522 
L 121.168725 197.300442 
L 122.954325 163.190459 
L 124.739925 177.098298 
L 126.525525 232.764761 
L 128.311125 199.100873 
L 130.096725 172.644167 
L 131.882325 210.742544 
L 133.667925 199.133784 
L 135.453525 191.990017 
L 137.239125 200.055396 
L 139.024725 222.287494 
L 140.810325 198.942002 
L 142.595925 216.510795 
L 144.381525 141.191945 
L 146.167125 176.828603 
L 147.952725 176.981211 
L 149.738325 152.567534 
L 151.523925 150.498355 
L 153.309525 172.056815 
L 155.095125 223.892357 
L 156.880725 223.075772 
L 158.666325 215.307773 
L 160.451925 221.432985 
L 162.237525 223.12184 
L 164.023125 225.363762 
L 165.808725 193.676929 
L 167.594325 257.475796 
L 169.379925 254.468428 
L 171.165525 227.221377 
L 172.951125 206.614049 
L 174.736725 237.849636 
L 176.522325 235.152245 
L 178.307925 201.640667 
L 180.093525 214.090198 
L 181.879125 217.832588 
L 185.450325 159.261551 
L 187.235925 191.850992 
L 189.021525 183.423603 
L 190.807125 170.931913 
L 192.592725 197.01248 
L 194.378325 172.516411 
L 196.163925 226.675208 
L 197.949525 207.348756 
L 199.735125 221.43228 
L 201.520725 218.139412 
L 203.306325 193.827243 
L 205.091925 212.332739 
L 206.877525 234.900672 
L 208.663125 249.376852 
L 210.448725 244.250801 
L 212.234325 264.763678 
L 214.019925 246.361502 
L 215.805525 211.982695 
L 217.591125 207.055312 
L 219.376725 182.960886 
L 221.162325 171.925258 
L 222.947925 198.007128 
L 224.733525 195.428405 
L 226.519125 218.484077 
L 228.304725 186.726606 
L 230.090325 152.575996 
L 231.875925 203.555054 
L 233.661525 191.762856 
L 235.447125 202.728461 
L 237.232725 221.29044 
L 239.018325 179.218649 
L 240.803925 163.337486 
L 242.589525 169.193506 
L 244.375125 187.53269 
L 246.160725 211.900871 
L 247.946325 191.942514 
L 249.731925 169.178696 
L 251.517525 165.679115 
L 253.303125 158.04065 
L 255.088725 155.952758 
L 256.874325 138.295302 
L 258.659925 117.611388 
L 260.445525 163.685054 
L 262.231125 154.455595 
L 265.802325 211.763722 
L 267.587925 235.182954 
L 269.373525 221.596254 
L 271.159125 206.360491 
L 272.944725 145.626751 
L 274.730325 172.18482 
L 276.515925 223.140485 
L 278.301525 229.504921 
L 280.087125 208.761237 
L 281.872725 210.742069 
L 283.658325 182.14746 
L 285.443925 220.597437 
L 287.229525 181.3927 
L 289.015125 170.6258 
L 290.800725 165.938975 
L 292.586325 184.779063 
L 294.371925 130.615587 
L 296.157525 186.595863 
L 297.943125 222.475207 
L 299.728725 216.139205 
L 301.514325 243.353558 
L 303.299925 214.29352 
L 305.085525 212.870151 
L 306.871125 197.242687 
L 308.656725 184.61522 
L 310.442325 199.232433 
L 312.227925 238.962791 
L 314.013525 249.048379 
L 315.799125 214.112314 
L 317.584725 226.547042 
L 319.370325 234.805916 
L 321.155925 245.213138 
L 322.941525 214.668877 
L 324.727125 207.606593 
L 326.512725 215.563489 
L 328.298325 204.046373 
L 330.083925 207.555459 
L 331.869525 154.389389 
L 333.655125 174.768811 
L 335.440725 202.712738 
L 337.226325 200.834381 
L 339.011925 208.365485 
L 340.797525 195.232565 
L 342.583125 233.593201 
L 344.368725 248.678596 
L 346.154325 225.475502 
L 347.939925 224.356203 
L 349.725525 235.244912 
L 351.511125 269.183518 
L 353.296725 232.74291 
L 355.082325 205.969257 
L 356.867925 236.289766 
L 358.653525 198.287549 
L 360.439125 204.253841 
L 362.224725 208.476096 
L 364.010325 201.980539 
L 365.795925 209.766544 
L 367.581525 204.559871 
L 369.367125 195.2835 
L 371.152725 230.414948 
L 372.938325 234.545365 
L 374.723925 212.354568 
L 376.509525 237.799089 
L 378.295125 230.372941 
L 380.080725 201.186438 
L 381.866325 198.226221 
L 383.651925 226.262844 
L 385.437525 193.557685 
L 385.437525 193.557685 
" style="fill:none;stroke:#1f77b4;stroke-linecap:square;stroke-width:1.5;"/>
   </g>
   <g id="patch_3">
    <path d="M 30.103125 277.111219 
L 30.103125 10.999219 
" style="fill:none;stroke:#000000;stroke-linecap:square;stroke-linejoin:miter;stroke-width:0.8;"/>
   </g>
   <g id="patch_4">
    <path d="M 387.223125 277.111219 
L 387.223125 10.999219 
" style="fill:none;stroke:#000000;stroke-linecap:square;stroke-linejoin:miter;stroke-width:0.8;"/>
   </g>
   <g id="patch_5">
    <path d="M 30.103125 277.111219 
L 387.223125 277.111219 
" style="fill:none;stroke:#000000;stroke-linecap:square;stroke-linejoin:miter;stroke-width:0.8;"/>
   </g>
   <g id="patch_6">
    <path d="M 30.103125 10.999219 
L 387.223125 10.999219 
" style="fill:none;stroke:#000000;stroke-linecap:square;stroke-linejoin:miter;stroke-width:0.8;"/>
   </g>
  </g>
 </g>
 <defs>
  <clipPath id="p686bf97dbf">
   <rect height="266.112" width="357.12" x="30.103125" y="10.999219"/>
  </clipPath>
 </defs>
</svg>
